<?xml version="1.0" standalone="no"?><!DOCTYPE svg PUBLIC "-//W3C//DTD SVG 1.1//EN" "http://www.w3.org/Graphics/SVG/1.1/DTD/svg11.dtd"><svg t="1751218659643" class="icon" viewBox="0 0 1024 1024" version="1.1" xmlns="http://www.w3.org/2000/svg" p-id="5350" xmlns:xlink="http://www.w3.org/1999/xlink" width="128" height="128"><path d="M800 704c-21.333333 0-40.533333 4.266667-57.6 12.8l-36.266667-49.066667c51.2-51.2 81.066667-119.466667 81.066667-196.266666 0-61.866667-21.333333-119.466667-55.466667-166.4l32-34.133334c12.8 4.266667 27.733333 8.533333 44.8 8.533334 70.4 0 128-57.6 128-128s-57.6-128-128-128-128 57.6-128 128c0 32 10.666667 59.733333 29.866667 83.2l-23.466667 25.6C642.133333 215.466667 580.266667 192 512 192c-153.6 0-277.333333 123.733333-277.333333 277.333333s123.733333 277.333333 277.333333 277.333334c53.333333 0 102.4-14.933333 145.066667-40.533334l36.266666 49.066667c-19.2 23.466667-32 53.333333-32 87.466667 0 76.8 61.866667 138.666667 138.666667 138.666666s138.666667-61.866667 138.666667-138.666666-61.866667-138.666667-138.666667-138.666667zM810.666667 85.333333c36.266667 0 64 27.733333 64 64s-27.733333 64-64 64-64-27.733333-64-64 27.733333-64 64-64zM298.666667 469.333333c0-117.333333 96-213.333333 213.333333-213.333333s213.333333 96 213.333333 213.333333-96 213.333333-213.333333 213.333334-213.333333-96-213.333333-213.333334z m501.333333 448c-40.533333 0-74.666667-34.133333-74.666667-74.666666s34.133333-74.666667 74.666667-74.666667 74.666667 34.133333 74.666667 74.666667-34.133333 74.666667-74.666667 74.666666z" fill="#ffffff" p-id="5351"></path><path d="M206.933333 352c17.066667 2.133333 34.133333-8.533333 36.266667-25.6 2.133333-17.066667-8.533333-34.133333-25.6-36.266667-34.133333-6.4-57.6-38.4-53.333333-72.533333s38.4-57.6 72.533333-53.333333c23.466667 4.266667 42.666667 21.333333 51.2 42.666666 6.4 17.066667 23.466667 25.6 40.533333 21.333334 17.066667-6.4 25.6-23.466667 21.333334-40.533334-14.933333-44.8-53.333333-78.933333-100.266667-87.466666-70.4-10.666667-134.4 36.266667-145.066667 106.666666-14.933333 68.266667 32 134.4 102.4 145.066667zM192 618.666667c-59.733333 0-106.666667 46.933333-106.666667 106.666666s46.933333 106.666667 106.666667 106.666667 106.666667-46.933333 106.666667-106.666667-46.933333-106.666667-106.666667-106.666666z m0 149.333333c-23.466667 0-42.666667-19.2-42.666667-42.666667s19.2-42.666667 42.666667-42.666666 42.666667 19.2 42.666667 42.666666-19.2 42.666667-42.666667 42.666667z" fill="#ffffff" p-id="5352"></path></svg>